<svg width="56" height="98" viewBox="0 0 56 98" fill="none" xmlns="http://www.w3.org/2000/svg">
<path d="M30.1125 43.0417C17.8167 39.8458 13.8625 36.5417 13.8625 31.3958C13.8625 25.4917 19.3334 21.375 28.4875 21.375C38.1292 21.375 41.7042 25.9792 42.0292 32.75H54C53.6209 23.4333 47.9334 14.875 36.6125 12.1125V0.25H20.3625V11.95C9.85418 14.225 1.40418 21.05 1.40418 31.5042C1.40418 44.0167 11.75 50.2458 26.8625 53.875C40.4042 57.125 43.1125 61.8917 43.1125 66.9292C43.1125 70.6667 40.4584 76.625 28.4875 76.625C17.3292 76.625 12.9417 71.6417 12.3459 65.25H0.429184C1.07918 77.1125 9.96252 83.775 20.3625 85.9958V97.75H36.6125V86.1042C47.175 84.1 55.5709 77.9792 55.5709 66.875C55.5709 51.4917 42.4084 46.2375 30.1125 43.0417Z" fill="#FAFAFA"/>
</svg>
