<svg width="110" height="110" viewBox="0 0 110 110" fill="none" xmlns="http://www.w3.org/2000/svg">
<path fill-rule="evenodd" clip-rule="evenodd" d="M55 0.833374C25.1 0.833374 0.833336 25.1 0.833336 55C0.833336 84.9 25.1 109.167 55 109.167C84.9 109.167 109.167 84.9 109.167 55C109.167 25.1 84.9 0.833374 55 0.833374ZM31.9792 60.4167C31.9792 56.6792 35.0125 53.6459 38.75 53.6459C42.4875 53.6459 45.5208 56.6792 45.5208 60.4167C45.5208 64.1542 42.4875 67.1875 38.75 67.1875C35.0125 67.1875 31.9792 64.1542 31.9792 60.4167ZM64.4792 60.4167C64.4792 56.6792 67.5125 53.6459 71.25 53.6459C74.9875 53.6459 78.0208 56.6792 78.0208 60.4167C78.0208 64.1542 74.9875 67.1875 71.25 67.1875C67.5125 67.1875 64.4792 64.1542 64.4792 60.4167ZM11.6667 55.0001C11.6667 78.8876 31.1125 98.3334 55 98.3334C78.8875 98.3334 98.3333 78.8876 98.3333 55.0001C98.3333 50.721 97.6833 46.6043 96.5458 42.7585C92.6458 43.6793 88.5833 44.1668 84.3583 44.1668C66.1042 44.1668 49.9625 35.121 40.1583 21.2543C34.85 34.2001 24.7208 44.6543 11.9375 50.3418C11.775 51.8585 11.6667 53.4293 11.6667 55.0001Z" fill="#FAFAFA"/>
</svg>
